<svg width="1440" height="1440" viewBox="0 0 1440 1440" fill="none" xmlns="http://www.w3.org/2000/svg"><path d="M214.697 335.97l19.697-27.377c6.818-9.886 15.151-11.407 22.727-6.083 4.546 3.041 5.303 8.365 4.546 12.167 3.788-3.042 9.848-3.802 15.909.76 7.576 5.323 8.333 14.449 1.515 24.335l-21.212 27.376-43.182-31.178zm18.182-5.324l6.818 4.563 9.091-12.167c2.273-2.282 2.273-4.563 0-6.844-2.273-1.521-4.546-.761-6.061 1.521l-9.848 12.927zm16.666 11.407l7.576 5.323 9.091-12.167c2.273-3.042 2.273-6.084 0-7.604-2.273-1.521-5.303-.761-7.576 2.281l-9.091 12.167zm24.243-41.825c-12.121-11.407-11.364-28.137 0-40.304 11.364-11.407 28.03-13.688 40.151-1.521 12.122 11.407 11.364 28.137 0 40.304-11.363 11.407-28.03 12.928-40.151 1.521zm28.788-30.418c-6.061-5.323-13.637-6.084-18.94 0-5.303 6.084-4.545 13.688.758 19.011 6.061 5.323 13.636 6.084 18.939 0 6.061-6.083 5.303-13.688-.757-19.011zm4.545-41.825l25.758-20.533c9.848-7.604 19.697-7.604 27.273 2.282 7.575 9.886 5.303 19.011-4.546 26.616l-13.636 10.646 10.606 13.688-12.121 9.126-33.334-41.825zm20.455 1.521l6.06 7.604 12.122-9.886c3.03-2.281 3.787-5.323 1.515-7.604-2.273-2.282-4.546-3.042-7.576 0l-12.121 9.886zm46.969-18.251c-8.333-15.209-2.272-30.418 12.122-38.023 14.394-7.605 30.303-4.563 38.636 10.646 7.576 14.449 2.273 30.419-12.121 38.023-14.394 7.605-30.303 3.802-38.637-10.646zm37.122-20.533c-3.788-6.844-11.364-9.885-18.182-6.083-6.818 3.802-8.333 11.407-4.546 19.011 3.788 7.605 11.364 9.886 18.182 6.084 6.818-3.802 8.334-12.167 4.546-19.012zm65.151-19.011l-21.969 7.605 6.06 19.011-14.394 5.323-17.424-50.95 14.394-5.324 6.06 19.012 21.97-7.605-6.06-19.011 14.394-5.323 17.424 50.95-14.394 5.323-6.061-19.011zm25-41.825l45.455-7.605 2.272 12.168-30.303 5.323.758 6.844 18.182-3.042 2.273 12.928-18.182 3.042 1.515 8.365 33.333-5.323 2.273 12.927-48.485 7.605-9.091-53.232zm83.334 16.73L562.424 120h17.425l18.939 22.053V120h14.394v22.053L632.121 120h17.424l-21.969 25.095 22.727 28.897h-18.939l-17.425-22.053v22.814h-14.394v-22.814l-18.939 22.814h-18.182l22.728-28.137zm70.454 2.281c.758-15.969 13.637-27.376 29.546-25.855 18.181 1.521 23.484 14.448 24.242 20.532l-15.152-1.521c-.757-1.521-3.03-5.323-9.848-6.083-7.576-.761-12.879 5.323-12.879 12.927 0 7.605 3.788 14.449 11.364 14.449 6.818.76 9.848-3.042 10.606-4.563l15.909.761c-1.515 5.323-8.333 18.251-27.273 16.73-17.424.76-28.03-11.407-26.515-27.377zm68.94-22.053l15.151 2.281-3.03 22.054 24.242-19.772 19.697 3.042-28.03 22.053 21.969 31.179-20.454-3.042-18.182-26.616-3.03 23.574-15.152-2.281 6.819-52.472zm67.424 9.126l15.151 3.041-6.818 31.94 29.546-27.377L845 146.616l-11.364 53.232-15.151-3.042 6.818-31.939-29.545 26.616-15.152-3.042 11.364-52.471zm69.697 15.969l15.151 4.563-9.091 31.179 31.818-24.335 15.152 4.563-15.152 51.711-15.151-4.563 9.091-31.179-31.818 24.335-15.152-4.563 15.152-51.711zm34.091-7.604l11.363 2.281v.76c-2.273 6.845-7.575 11.407-17.424 8.365-9.848-3.041-12.121-9.885-9.848-16.73v-.76l10.606 3.042v.76c-.758 1.521 0 3.042 2.272 3.803 1.515 1.52 3.031 0 3.031-1.521zm68.939 41.825l43.943 20.532-5.31 12.167-29.542-13.688-16.667 37.262-14.394-6.844 21.97-49.429zm40.913 49.429c8.33-14.448 25-17.49 38.63-9.125 13.64 8.365 19.7 24.334 10.61 38.783-8.33 14.449-25 17.491-38.64 9.126-13.63-8.365-18.937-24.335-10.6-38.784zm36.36 21.293c3.79-6.844 3.03-14.449-4.55-19.011-6.81-3.803-14.39-1.521-18.18 5.323-3.79 6.844-3.03 14.449 4.55 19.011 6.82 3.803 14.39 1.521 18.18-5.323zm21.97 13.688c9.85-12.927 25.76-15.209 39.39-5.323 14.4 11.407 12.12 25.095 9.09 30.418l-12.87-9.125c0-1.521 0-6.084-5.31-9.886-6.06-4.563-13.63-2.281-18.18 3.802-4.54 6.084-4.54 13.688 1.52 18.251 5.3 3.802 9.84 2.282 11.36 2.282l12.88 9.125c-3.79 3.802-16.67 11.407-31.82 0-13.64-10.646-15.15-26.616-6.06-39.544zm37.88 63.879l20.45-5.324 7.58-42.585 13.63 12.928-4.54 25.095 24.24-6.844 12.12 11.406-60.6 16.731-12.88-11.407zm112.12 43.346l-31.06 25.095 4.54 6.083-19.69 15.97-9.09-10.646 9.84-7.605-22.72-28.137-9.85 7.605-9.09-10.647 19.7-15.969 3.03 4.562c3.78-.76 8.33-2.281 15.9-6.844l19.7-12.927 28.79 33.46zm-19.7-3.803l-9.85-12.167-9.09 5.323c-7.57 4.563-12.12 6.084-15.15 6.844l12.88 15.97 21.21-15.97zm13.64 80.609l-12.12-20.533-8.34 1.521-8.33-13.688 57.58-7.604 8.33 14.448-34.85 47.149-8.33-14.449 6.06-6.844zm8.33-11.407l10.61-13.688-17.43 2.281 6.82 11.407zm47.73 17.49l12.88 30.419c4.54 11.407 2.27 20.532-9.09 25.855-11.37 5.323-19.7 0-24.25-11.407l-6.81-15.969-15.91 6.844-6.06-14.449 49.24-21.293zm-6.06 19.772l-9.09 3.803 6.06 14.448c1.51 3.803 3.79 4.563 6.82 3.803 3.03-1.521 3.78-3.803 2.27-7.605l-6.06-14.449zm5.3 49.43c15.15-4.563 29.55 3.042 34.09 19.772 5.31 17.49-5.3 27.376-11.36 30.418l-4.55-15.209c.76-1.521 3.79-4.563 2.28-11.407-2.28-7.604-9.09-9.886-16.67-7.604-7.58 2.281-12.12 8.365-9.85 15.209 1.52 6.083 6.06 7.604 7.58 8.365l4.54 15.209c-5.3.76-19.69-1.521-25-19.772-4.54-15.97 3.79-30.418 18.94-34.981zm43.18 56.274l9.09 53.992-12.87 2.282-3.03-19.012-40.16 6.844-2.27-15.209 40.15-6.844-3.03-19.011 12.12-3.042zm10.61 69.201l1.51 33.46c.76 11.407-4.54 18.251-13.63 19.012-5.3 0-9.09-3.042-11.37-6.844-1.51 4.562-5.3 9.125-12.87 9.125-9.09.761-15.91-5.323-16.67-18.251l-1.52-34.22 54.55-2.282zm-31.82 16.73l-9.09.761.76 15.209c0 3.802 1.51 6.084 5.3 6.084 3.03 0 4.55-2.282 4.55-6.845l-1.52-15.209zm20.46-.76l-8.34.76.76 15.209c0 3.042 1.52 5.324 4.55 5.324s3.78-2.282 3.78-5.324l-.75-15.969zm14.39 51.711l-2.27 46.388-12.12-.761 1.51-31.178h-6.82l-.75 18.251-12.88-.761.75-18.251h-8.33l-1.51 34.221-12.88-.761 2.27-49.429 53.03 2.281zm-43.18 97.338l3.79-22.813-19.7-3.042 2.27-15.209 53.03 8.365-2.27 15.209-19.7-3.042-3.79 22.814 19.7 3.041-2.27 15.21-53.03-8.365 2.27-15.21 19.7 3.042zm-15.15 66.92l6.06-22.053-19.7-5.323 3.79-15.209 52.27 14.449-3.79 15.209-19.69-5.324-6.06 22.054 19.69 5.323-3.79 15.209-52.27-14.449 3.79-15.209 19.7 5.323zm.75 95.057l-6.06 14.449-50-20.532 6.06-14.449 50 20.532zm-4.54-29.657c-5.3 12.167-13.64 16.73-25.76 12.167-12.12-4.563-14.39-14.449-9.85-26.616l12.12-29.658 50 20.533-6.06 14.448-14.39-6.083-6.06 15.209zm-6.06-20.533l-10.61-4.562-5.3 12.927c-1.52 4.563-.76 6.844 2.27 8.365 3.03 1.521 6.06 0 7.58-4.562l6.06-12.168zm-4.55 82.133l-7.57 13.68-28.03-16.73 15.91 37.27-7.58 13.69-46.21-27.38 7.57-13.69 28.03 16.73-15.91-37.26 7.58-13.69 46.21 27.38zm-1.51 34.98l-5.31 9.88-.75-.76c-6.06-3.8-9.09-10.64-3.79-19.01 5.3-8.36 12.88-9.12 18.94-6.08l.76.76-6.06 9.88h-.76c-1.52-.76-3.03-.76-4.55 1.53-.76 1.52.76 3.04 1.52 3.8zm-93.18 49.43c-10.61-11.41-13.64-19.77-3.03-31.94l.75-.76 11.37 9.88-.76.76c-3.03 3.81-2.27 6.85 1.51 11.41l20.46 22.05-29.55 34.22-40.91-35.74 9.85-11.4 30.31 26.61 10.6-12.16-10.6-12.93zm-12.13 59.31l-34.09 31.18-8.33-9.12 22.73-20.54-4.55-5.32-13.63 12.17-8.34-9.89 13.64-12.17-5.3-6.08-25 22.81-9.1-9.88 36.37-33.46 35.6 40.3zm-62.12 19.01c9.09 12.93 6.82 29.66-6.81 38.79-15.16 10.64-28.04 3.8-31.82-.76l12.88-9.13c1.51.76 6.06 2.28 11.36-1.52 6.06-4.56 6.06-12.17 2.27-18.25-4.54-6.08-11.36-9.13-18.18-4.56-5.3 3.8-5.3 8.36-5.3 9.88l-12.88 9.13c-2.27-4.56-5.3-19.01 9.85-30.42 13.63-9.89 29.54-6.84 38.63 6.84zm-53.03 36.51c7.58 15.21 1.52 30.41-12.88 38.02-14.39 7.6-30.299 3.8-38.632-11.41-7.576-14.45-1.515-30.42 12.879-38.02 15.153-7.61 31.063-3.8 38.633 11.41zm-37.118 19.77c3.788 6.84 10.606 9.88 18.178 6.08 6.82-3.8 9.09-11.41 5.31-18.25-3.79-6.84-10.61-9.89-18.185-6.08-6.818 3.04-8.333 10.64-5.303 18.25zm-12.879 36.5l-50.758 19.77-4.545-12.17 18.182-6.84-14.394-38.02 14.394-5.33 14.394 38.03 18.182-6.85 4.545 11.41zm-65.151 23.57l-44.697 11.41-3.031-12.17 29.546-7.6-1.515-6.85-17.425 4.57-3.03-12.17 17.424-4.56-2.272-8.37-32.576 8.37-3.03-12.93 47.727-12.17 12.879 52.47zm-93.182-18.25l11.363-18.25 18.182-2.28-18.939 30.42 25.757 23.57-19.697 3.05-14.394-12.93-9.848 16.73-18.182 3.04 18.182-28.9-26.515-24.33 18.939-3.04 15.152 12.92zm-79.546 10.65l22.728-.76-.758-20.53 15.151-.76 2.273 53.99-15.151.76-.758-20.53-22.727.76.757 20.53-15.151.76-2.273-53.99 15.152-.76.757 20.53zM704.848 1320l-15.151-1.52 3.03-32.7-26.515 30.42-15.151-1.52 4.545-54 15.152 1.53-3.031 31.93 26.515-30.41 15.152 1.52-4.546 54.75zm-100.757-50.19c1.515 0 3.03 0 4.545.76 2.273 0 6.061.76 9.091 1.52 14.394 3.04 21.212 10.65 17.425 26.62l-3.031 15.21-15.151-3.81 3.03-15.2c1.515-6.09-.758-8.37-6.818-9.89-3.03-.76-6.061-1.52-8.333-1.52h-3.788l-5.303 22.05-15.152-3.8 12.121-52.47 15.152 3.8-3.788 16.73zm-41.667 25.1l-43.182-15.97 4.546-11.41 28.788 10.64 2.273-6.84-17.425-6.08 4.546-12.17 17.424 6.08 3.03-7.6-31.818-12.17 4.546-12.17 46.212 17.49-18.94 50.2zm-45.454-46.39c-7.576 14.45-22.728 19.77-37.879 12.16-16.667-8.36-15.909-22.81-14.394-28.89l13.636 7.6c0 1.52.758 6.09 6.819 9.13 6.818 3.8 13.636 0 17.424-6.85 3.788-6.84 2.272-14.45-4.546-18.25-6.06-3.04-9.848-.76-11.363 0l-13.637-7.6c3.031-3.8 14.394-13.69 31.818-4.57 15.152 7.61 19.697 22.82 12.122 37.27zm-73.485-9.13l-12.879-9.12 12.879-18.25-30.303 6.84-16.667-11.41 34.849-7.6-5.303-38.02 17.424 12.16 4.545 31.94 12.879-19.77 12.879 9.13-30.303 44.1zm-56.818-40.3l-12.122-9.89 21.213-24.33-39.394 9.12-12.122-9.88 34.849-41.07 12.121 9.89L370 1157.26l39.394-9.12 12.121 9.88-34.848 41.07zm-87.879-59.32l-8.333-7.6.757-.76c5.303-4.57 12.879-6.09 19.697 1.52 6.818 7.6 5.303 15.21 0 19.77l-.757.76-7.576-8.36.757-.77c1.516-1.52 1.516-3.04 0-4.56-1.515-1.52-3.03-.76-4.545 0zm33.333 11.41l-10.606-11.41L345 1117.72l-40.151 4.56-10.607-11.41 39.394-36.5 10.606 11.41-23.484 22.05 39.394-4.56 10.606 11.41-38.637 36.5zm-28.788-116.35l-21.212 1.52-15.909 40.3-10.606-15.21 9.091-23.57-25 1.52-9.849-13.69 62.879-3.8 10.606 12.93zm-67.424-69.963l11.364 19.772 17.424-9.886 7.576 13.688-46.97 26.619-7.576-13.69 17.425-9.887-11.364-19.772-17.424 9.886-7.576-13.688 46.97-26.616 7.575 13.688-17.424 9.886zm-44.697-12.928l-6.06-14.448 29.545-12.928-39.394-8.365-6.061-14.449 49.243-22.053 6.06 14.449L195 907.072l39.394 8.365 6.061 14.449-49.243 22.053zm-28.03-66.92l-10.606-31.939c-3.788-11.407 0-19.011 8.333-22.053 5.303-1.521 9.849.76 12.121 3.802 0-4.563 3.031-9.886 9.849-12.167 9.091-3.042 16.666 1.521 20.454 12.927l10.606 31.94-50.757 17.49zM170 866.768l7.576-2.281-4.546-14.449c-.757-3.042-2.272-4.563-5.303-3.802-3.03.76-3.03 3.042-2.272 6.083L170 866.768zm18.939-6.844l9.091-3.042-4.545-14.448c-1.515-3.803-3.03-5.324-6.818-4.563-3.031.76-3.788 3.802-2.273 7.604l4.545 14.449zm-46.212-39.544l-10.606-45.627 12.121-3.042 6.819 30.418 6.818-1.521-3.788-18.251 12.121-3.041L170 797.567l8.333-1.521-7.575-32.7 12.878-3.042L195 808.213l-52.273 12.167zm-13.636-63.118l-4.546-32.699c-1.515-12.168 3.788-20.533 15.91-22.053 12.121-1.521 18.939 5.323 20.454 17.49l2.273 17.491 17.424-2.282 2.273 15.209-53.788 6.844zm11.364-16.73l9.848-1.521-2.273-15.969c-.757-3.802-2.272-6.084-5.303-5.323-3.03.76-4.545 2.281-3.788 6.844l1.516 15.969zm7.575-49.429c-15.909 0-28.03-10.647-28.03-27.377 0-18.251 12.121-25.095 18.182-25.855v15.969c-1.515.761-5.303 3.803-4.546 9.886 0 7.605 6.819 12.168 14.394 12.168 7.576 0 13.637-4.563 13.637-12.168 0-6.844-3.788-9.125-5.303-9.886v-15.969c5.303.76 18.939 6.083 18.939 25.855.758 15.97-11.364 27.377-27.273 27.377zm-27.272-69.202l1.515-15.209 32.575 3.802-29.545-27.376 1.515-15.209 53.788 6.083-1.515 15.21-31.818-3.803 29.545 27.377-1.515 15.209-54.545-6.084zm9.09-69.201l12.122-53.232 12.878 3.042-4.545 19.011 39.394 8.365-3.788 15.209-39.394-9.125-4.545 19.011-12.122-2.281zm15.91-67.681l15.151-44.106 12.121 3.802-9.848 28.897 6.818 2.282 6.061-17.491 12.121 4.563-6.061 17.49 7.576 3.042 11.364-31.939 12.121 4.563-15.909 47.148-51.515-18.251zm20.454-57.795l23.485-49.429 12.121 6.083-8.333 17.491 36.363 17.49-6.818 13.689-36.363-16.73-8.334 17.49-12.121-6.084zM720 1200c-274.5 0-480-285-480-540 0-91.5 31.5-192 84-269.25C371.25 322.5 456.75 240 600 240c195.75 0 348.75 47.25 454.5 141 95.25 84.75 145.5 201.75 145.5 339 0 121.5-42.75 240.75-117.75 326.25C994.5 1146.75 869.25 1200 720 1200zM600 300c-117 0-187.5 68.25-226.5 125.25C319.5 504 300 598.5 300 660c0 112.5 46.5 234.75 123 327.75C505.5 1086 610.5 1140 720 1140c288.75 0 420-217.5 420-420 0-263.25-201.75-420-540-420zm180 780c-96 0-200.25-35.25-279-94.5-90.75-69-141-162.75-141-265.5 0-228.75 109.5-360 300-360 279 0 420 141 420 420 0 95.25-30.75 173.25-89.25 226.5-53.25 48-126 73.5-210.75 73.5zM660 420c-109.5 0-240 51.75-240 300 0 177 189.75 300 360 300 150 0 240-90 240-240 0-245.25-114.75-360-360-360zm120 540c-68.25 0-144.75-33.75-203.25-90C515.25 810.75 480 734.25 480 660c0-63 33-113.25 96-145.5C624.75 489 682.5 480 720 480c148.5 0 240 156 240 300 0 132.75-93 180-180 180zm-60-420c-46.5 0-180 21.75-180 120 0 126.75 134.25 240 240 240 54.75 0 120-21 120-120 0-115.5-69-240-180-240zm30 300c-75.75 0-150-74.25-150-150 0-59.25 45-90 90-90 77.25 0 150 72.75 150 150 0 53.25-36.75 90-90 90zm-60-180c-6.75 0-30 2.25-30 30 0 42.75 47.25 90 90 90 20.25 0 30-9.75 30-30 0-42.75-47.25-90-90-90z" fill="#00533C"/></svg>